<?xml version="1.0" encoding="UTF-8"?>
<svg version="1.1" xmlns="http://www.w3.org/2000/svg" width="512" height="512">
<path d="M0 0 C1.40572266 -0.03673828 1.40572266 -0.03673828 2.83984375 -0.07421875 C11.87035573 2.0602659 17.01451876 8.56454889 21.72265625 16.08984375 C22.30985947 16.99509293 22.89706268 17.9003421 23.50205994 18.83302307 C25.3924394 21.75367269 27.25832278 24.6891585 29.125 27.625 C31.08963607 30.67002713 33.06069313 33.71083181 35.03207397 36.75149536 C36.31929507 38.7378632 37.6044938 40.72554315 38.88760376 42.71456909 C43.14473025 49.30862919 47.50595094 55.79585291 52.0625 62.1875 C59.93333982 73.30090412 67.38833083 84.6885038 74.875 96.0625 C75.80638794 97.47704468 75.80638794 97.47704468 76.7565918 98.92016602 C107.02318775 144.91143933 107.02318775 144.91143933 119.64208984 166.28857422 C120.70074439 168.07653221 121.76437042 169.86154837 122.83056641 171.64501953 C142.1430371 203.95691288 160.44679871 236.89296017 173.23974609 272.40380859 C173.75397241 273.83112995 174.27415638 275.25633524 174.80322266 276.67822266 C177.82514767 284.80058847 179.93957037 292.98734979 181.8125 301.4375 C182.02350342 302.38415527 182.23450684 303.33081055 182.4519043 304.30615234 C191.24435392 345.73204755 178.92692416 391.94628504 156.5625 427.125 C142.21871024 448.89896104 123.94740034 468.40453286 102.0625 482.6875 C101.47919922 483.0685791 100.89589844 483.4496582 100.29492188 483.84228516 C79.32760003 497.34675946 56.55589068 506.17477228 32.0625 510.6875 C30.68191406 510.95457764 30.68191406 510.95457764 29.2734375 511.22705078 C19.73655929 512.90500152 10.34037202 513.0850646 0.6875 513.0625 C-0.14865845 513.06228851 -0.98481689 513.06207703 -1.84631348 513.06185913 C-15.56063977 513.02732289 -28.58002876 511.97553449 -41.9375 508.6875 C-42.72382813 508.50558105 -43.51015625 508.32366211 -44.3203125 508.13623047 C-68.76822458 502.41774936 -92.04608463 490.90469244 -111.9375 475.6875 C-113.10925781 474.83285156 -113.10925781 474.83285156 -114.3046875 473.9609375 C-124.35871473 466.48486597 -134.19125496 457.55237616 -141.9375 447.6875 C-142.58235352 446.87055664 -142.58235352 446.87055664 -143.24023438 446.03710938 C-168.46930514 413.86920205 -183.08683414 376.67297805 -184.9375 335.6875 C-184.98003906 334.76453125 -185.02257812 333.8415625 -185.06640625 332.890625 C-186.34103486 276.80696612 -151.60218985 219.99353532 -123.7265625 173.67529297 C-121.78043156 170.42519056 -119.87228263 167.1549117 -117.97363281 163.87695312 C-112.27762203 154.05624487 -106.1598602 144.51221793 -100.02416992 134.9621582 C-98.44265827 132.48025628 -96.87366571 129.99222914 -95.3137207 127.49682617 C-87.74760617 115.40931589 -79.87738428 103.55223156 -71.875 91.75 C-70.59423993 89.85636516 -69.31372534 87.96256426 -68.03344727 86.06860352 C-60.06436118 74.28416119 -52.07490035 62.5134893 -44.07958984 50.74682617 C-39.86115827 44.53533442 -35.66354777 38.31090882 -31.5 32.0625 C-31.03360107 31.36608398 -30.56720215 30.66966797 -30.08666992 29.95214844 C-27.61652885 26.25414924 -25.19802402 22.53019647 -22.82421875 18.76953125 C-22.29948975 17.9511377 -21.77476074 17.13274414 -21.23413086 16.28955078 C-20.24043943 14.7382314 -19.25959874 13.17856312 -18.29516602 11.60888672 C-13.95164558 4.87700919 -8.393 -0.03453909 0 0 Z M-0.9375 52.6875 C-2.36210054 54.55912566 -3.6501193 56.42355469 -4.92578125 58.39453125 C-5.3324704 59.01015427 -5.73915955 59.62577728 -6.15817261 60.26005554 C-7.05312512 61.61622963 -7.94493682 62.97448008 -8.83407593 64.33447266 C-11.28455755 68.08226186 -13.75741059 71.81527806 -16.2265625 75.55078125 C-16.756483 76.35391754 -17.2864035 77.15705383 -17.8323822 77.98452759 C-25.12124695 89.01851599 -32.55093872 99.95814754 -39.96694946 110.90689087 C-47.7600372 122.4150995 -55.45009232 133.97779554 -62.9375 145.6875 C-63.81329712 147.05648437 -63.81329712 147.05648437 -64.70678711 148.453125 C-66.08118863 150.61097868 -67.44927433 152.77257206 -68.8125 154.9375 C-69.30532471 155.72012207 -69.79814941 156.50274414 -70.3059082 157.30908203 C-71.85165745 159.76737618 -73.39466788 162.22737428 -74.9375 164.6875 C-75.43975098 165.48575195 -75.94200195 166.28400391 -76.45947266 167.10644531 C-135.52046246 257.14065665 -135.52046246 257.14065665 -144.46044922 360.46142578 C-135.44824206 398.8243132 -113.04280843 432.18282931 -79.44726562 453.22851562 C-47.1561397 472.87088963 -7.89656869 481.69090313 29.48828125 473.6015625 C30.66777344 473.29992187 31.84726562 472.99828125 33.0625 472.6875 C34.87814453 472.23503906 34.87814453 472.23503906 36.73046875 471.7734375 C76.7991807 461.02436101 109.18362571 435.58713844 129.93261719 399.74023438 C147.36946461 368.06153663 152.40567768 331.243449 142.44970703 296.55224609 C138.46755415 283.13205316 132.84264432 270.41413518 127.0625 257.6875 C126.68722168 256.85573242 126.31194336 256.02396484 125.92529297 255.16699219 C116.12210361 233.54970283 104.13890811 213.09439334 92.0625 192.6875 C91.546875 191.81351563 91.03125 190.93953125 90.5 190.0390625 C77.8161838 168.56906113 64.19185697 147.70291716 50.49639893 126.8692627 C48.90173678 124.44288917 47.30803265 122.01588776 45.71435547 119.58886719 C26.27386444 89.89159262 26.27386444 89.89159262 6.32373047 60.53613281 C5.11425397 58.76335774 3.96548213 56.96066427 2.81640625 55.1484375 C1.94822266 53.93027344 1.94822266 53.93027344 1.0625 52.6875 C0.4025 52.6875 -0.2575 52.6875 -0.9375 52.6875 Z " fill="#000000" transform="translate(255.9375,-0.6875)"/>
<path d="M0 0 C4.36775158 3.14884416 7.96773395 6.77820184 9.6875 11.9375 C12.068625 43.85373322 -1.97835444 72.65046651 -21.625 96.77734375 C-28.88148925 105.18709647 -37.3620584 111.82190368 -46.625 117.875 C-47.19951904 118.25277588 -47.77403809 118.63055176 -48.3659668 119.01977539 C-54.32161772 122.80236023 -59.12298753 124.49683126 -66.07421875 123.46875 C-72.2395604 122.00542284 -75.83232638 118.86887879 -79.3671875 113.71875 C-81.55005727 109.60557391 -81.69532384 105.53138609 -81.3125 100.9375 C-78.69197515 92.45834954 -72.12355242 87.69209837 -64.9375 83.0625 C-46.07698462 70.73684587 -34.31555924 51.69608783 -29.3125 29.9375 C-28.62306277 25.85457648 -28.01356303 21.75952688 -27.52636719 17.64746094 C-26.70728016 11.45100255 -25.06805717 6.72987976 -20.55859375 2.16015625 C-13.97257825 -2.06456644 -7.41019288 -2.37685432 0 0 Z " fill="#000000" transform="translate(371.3125,316.0625)"/>
</svg>
